{
	"asset":{
		"generator":"Khronos glTF Blender I/O v5.1.19",
		"version":"2.0"
	},
	"extensionsUsed":[
		"KHR_materials_emissive_strength"
	],
	"scene":0,
	"scenes":[
		{
			"name":"Scene",
			"nodes":[
				0,
				1
			]
		}
	],
	"nodes":[
		{
			"mesh":0,
			"name":"Sphere"
		},
		{
			"name":"Plane"
		}
	],
	"materials":[
		{
			"alphaMode":"BLEND",
			"doubleSided":true,
			"emissiveFactor":[
				0.3005438446998596,
				0.5775805711746216,
				1
			],
			"extensions":{
				"KHR_materials_emissive_strength":{
					"emissiveStrength":5
				}
			},
			"name":"Material",
			"pbrMetallicRoughness":{
				"baseColorTexture":{
					"index":0
				},
				"metallicFactor":0
			}
		}
	],
	"meshes":[
		{
			"name":"Sphere",
			"primitives":[
				{
					"attributes":{
						"POSITION":0,
						"NORMAL":1,
						"TEXCOORD_0":2
					},
					"indices":3,
					"material":0
				}
			]
		}
	],
	"textures":[
		{
			"sampler":0,
			"source":0
		}
	],
	"images":[
		{
			"mimeType":"image/png",
			"name":"trail.png",
			"uri":"../../../textures/effect/trail.png"
		}
	],
	"accessors":[
		{
			"bufferView":0,
			"componentType":5126,
			"count":315,
			"max":[
				0.08584090322256088,
				0.0795508548617363,
				0.7957549095153809
			],
			"min":[
				-0.0649968609213829,
				-0.08204478025436401,
				-4.0531158447265625e-06
			],
			"type":"VEC3"
		},
		{
			"bufferView":1,
			"componentType":5126,
			"count":315,
			"type":"VEC3"
		},
		{
			"bufferView":2,
			"componentType":5126,
			"count":315,
			"type":"VEC2"
		},
		{
			"bufferView":3,
			"componentType":5123,
			"count":1440,
			"type":"SCALAR"
		}
	],
	"bufferViews":[
		{
			"buffer":0,
			"byteLength":3780,
			"byteOffset":0,
			"target":34962
		},
		{
			"buffer":0,
			"byteLength":3780,
			"byteOffset":3780,
			"target":34962
		},
		{
			"buffer":0,
			"byteLength":2520,
			"byteOffset":7560,
			"target":34962
		},
		{
			"buffer":0,
			"byteLength":2880,
			"byteOffset":10080,
			"target":34963
		}
	],
	"samplers":[
		{
			"magFilter":9729,
			"minFilter":9987
		}
	],
	"buffers":[
		{
			"byteLength":12960,
			"uri":"magic_projectile.bin"
		}
	]
}
