{
	"asset":{
		"generator":"Khronos glTF Blender I/O v4.5.48",
		"version":"2.0"
	},
	"scene":0,
	"scenes":[
		{
			"name":"Scene",
			"nodes":[
				0
			]
		}
	],
	"nodes":[
		{
			"mesh":0,
			"name":"Cube",
			"translation":[
				14.5,
				3.000000238418579,
				26
			]
		}
	],
	"materials":[
		{
			"doubleSided":true,
			"name":"Material",
			"pbrMetallicRoughness":{
				"baseColorTexture":{
					"index":0
				},
				"metallicFactor":0,
				"roughnessFactor":0.5
			}
		}
	],
	"meshes":[
		{
			"name":"Cube",
			"primitives":[
				{
					"attributes":{
						"POSITION":0,
						"NORMAL":1,
						"TEXCOORD_0":2
					},
					"indices":3,
					"material":0
				}
			]
		}
	],
	"textures":[
		{
			"sampler":0,
			"source":0
		}
	],
	"images":[
		{
			"mimeType":"image/png",
			"name":"lightmap",
			"uri":"textures/lightmap.hdr"
		}
	],
	"accessors":[
		{
			"bufferView":0,
			"componentType":5126,
			"count":581,
			"max":[
				23.5,
				10.018328666687012,
				6
			],
			"min":[
				-34.5,
				-3.000000238418579,
				-64
			],
			"type":"VEC3"
		},
		{
			"bufferView":1,
			"componentType":5126,
			"count":581,
			"type":"VEC3"
		},
		{
			"bufferView":2,
			"componentType":5126,
			"count":581,
			"type":"VEC2"
		},
		{
			"bufferView":3,
			"componentType":5123,
			"count":867,
			"type":"SCALAR"
		}
	],
	"bufferViews":[
		{
			"buffer":0,
			"byteLength":6972,
			"byteOffset":0,
			"target":34962
		},
		{
			"buffer":0,
			"byteLength":6972,
			"byteOffset":6972,
			"target":34962
		},
		{
			"buffer":0,
			"byteLength":4648,
			"byteOffset":13944,
			"target":34962
		},
		{
			"buffer":0,
			"byteLength":1734,
			"byteOffset":18592,
			"target":34963
		}
	],
	"samplers":[
		{
			"magFilter":9729,
			"minFilter":9987
		}
	],
	"buffers":[
		{
			"byteLength":20328,
			"uri":"testmap.bin"
		}
	]
}
